<svg xmlns="http://www.w3.org/2000/svg" version="1.1" xmlns:xlink="http://www.w3.org/1999/xlink" xmlns:svgjs="http://svgjs.dev/svgjs" width="1440" height="560" preserveAspectRatio="none" viewBox="0 0 1440 560"><g mask="url(&quot;#SvgjsMask1015&quot;)" fill="none"><rect width="1440" height="560" x="0" y="0" fill="rgba(0, 9, 19, 1)"></rect><path d="M557 195L726 26" stroke-width="6" stroke="url(&quot;#SvgjsLinearGradient1016&quot;)" stroke-linecap="round" class="BottomLeft"></path><path d="M987 378L1369 -4" stroke-width="10" stroke="url(&quot;#SvgjsLinearGradient1017&quot;)" stroke-linecap="round" class="TopRight"></path><path d="M194 34L516 -288" stroke-width="10" stroke="url(&quot;#SvgjsLinearGradient1017&quot;)" stroke-linecap="round" class="TopRight"></path><path d="M77 55L469 -337" stroke-width="10" stroke="url(&quot;#SvgjsLinearGradient1016&quot;)" stroke-linecap="round" class="BottomLeft"></path><path d="M113 403L423 93" stroke-width="6" stroke="url(&quot;#SvgjsLinearGradient1016&quot;)" stroke-linecap="round" class="BottomLeft"></path><path d="M487 302L658 131" stroke-width="10" stroke="url(&quot;#SvgjsLinearGradient1017&quot;)" stroke-linecap="round" class="TopRight"></path><path d="M778 223L488 513" stroke-width="10" stroke="url(&quot;#SvgjsLinearGradient1017&quot;)" stroke-linecap="round" class="TopRight"></path><path d="M486 222L724 -16" stroke-width="10" stroke="url(&quot;#SvgjsLinearGradient1016&quot;)" stroke-linecap="round" class="BottomLeft"></path><path d="M1282 169L1613 -162" stroke-width="6" stroke="url(&quot;#SvgjsLinearGradient1016&quot;)" stroke-linecap="round" class="BottomLeft"></path><path d="M52 147L-168 367" stroke-width="10" stroke="url(&quot;#SvgjsLinearGradient1017&quot;)" stroke-linecap="round" class="TopRight"></path><path d="M1066 516L1342 240" stroke-width="6" stroke="url(&quot;#SvgjsLinearGradient1017&quot;)" stroke-linecap="round" class="TopRight"></path><path d="M124 14L-289 427" stroke-width="8" stroke="url(&quot;#SvgjsLinearGradient1017&quot;)" stroke-linecap="round" class="TopRight"></path><path d="M1094 147L1257 -16" stroke-width="8" stroke="url(&quot;#SvgjsLinearGradient1016&quot;)" stroke-linecap="round" class="BottomLeft"></path><path d="M1259 89L840 508" stroke-width="8" stroke="url(&quot;#SvgjsLinearGradient1017&quot;)" stroke-linecap="round" class="TopRight"></path><path d="M695 59L495 259" stroke-width="10" stroke="url(&quot;#SvgjsLinearGradient1016&quot;)" stroke-linecap="round" class="BottomLeft"></path><path d="M858 280L697 441" stroke-width="6" stroke="url(&quot;#SvgjsLinearGradient1016&quot;)" stroke-linecap="round" class="BottomLeft"></path><path d="M974 134L797 311" stroke-width="8" stroke="url(&quot;#SvgjsLinearGradient1016&quot;)" stroke-linecap="round" class="BottomLeft"></path><path d="M21 502L265 258" stroke-width="10" stroke="url(&quot;#SvgjsLinearGradient1017&quot;)" stroke-linecap="round" class="TopRight"></path><path d="M673 221L394 500" stroke-width="8" stroke="url(&quot;#SvgjsLinearGradient1016&quot;)" stroke-linecap="round" class="BottomLeft"></path><path d="M42 510L322 230" stroke-width="6" stroke="url(&quot;#SvgjsLinearGradient1017&quot;)" stroke-linecap="round" class="TopRight"></path><path d="M1178 516L922 772" stroke-width="10" stroke="url(&quot;#SvgjsLinearGradient1017&quot;)" stroke-linecap="round" class="TopRight"></path><path d="M846 132L473 505" stroke-width="6" stroke="url(&quot;#SvgjsLinearGradient1016&quot;)" stroke-linecap="round" class="BottomLeft"></path><path d="M1004 219L784 439" stroke-width="6" stroke="url(&quot;#SvgjsLinearGradient1016&quot;)" stroke-linecap="round" class="BottomLeft"></path><path d="M170 273L359 84" stroke-width="8" stroke="url(&quot;#SvgjsLinearGradient1017&quot;)" stroke-linecap="round" class="TopRight"></path><path d="M780 163L386 557" stroke-width="10" stroke="url(&quot;#SvgjsLinearGradient1017&quot;)" stroke-linecap="round" class="TopRight"></path><path d="M1246 358L1454 150" stroke-width="6" stroke="url(&quot;#SvgjsLinearGradient1017&quot;)" stroke-linecap="round" class="TopRight"></path><path d="M1075 103L661 517" stroke-width="10" stroke="url(&quot;#SvgjsLinearGradient1017&quot;)" stroke-linecap="round" class="TopRight"></path><path d="M234 38L528 -256" stroke-width="8" stroke="url(&quot;#SvgjsLinearGradient1016&quot;)" stroke-linecap="round" class="BottomLeft"></path><path d="M423 421L669 175" stroke-width="10" stroke="url(&quot;#SvgjsLinearGradient1017&quot;)" stroke-linecap="round" class="TopRight"></path><path d="M1195 282L845 632" stroke-width="6" stroke="url(&quot;#SvgjsLinearGradient1017&quot;)" stroke-linecap="round" class="TopRight"></path><path d="M1128 432L923 637" stroke-width="6" stroke="url(&quot;#SvgjsLinearGradient1016&quot;)" stroke-linecap="round" class="BottomLeft"></path><path d="M908 352L710 550" stroke-width="10" stroke="url(&quot;#SvgjsLinearGradient1016&quot;)" stroke-linecap="round" class="BottomLeft"></path><path d="M128 39L339 -172" stroke-width="8" stroke="url(&quot;#SvgjsLinearGradient1016&quot;)" stroke-linecap="round" class="BottomLeft"></path><path d="M1150 398L1476 72" stroke-width="8" stroke="url(&quot;#SvgjsLinearGradient1017&quot;)" stroke-linecap="round" class="TopRight"></path><path d="M741 128L923 -54" stroke-width="8" stroke="url(&quot;#SvgjsLinearGradient1016&quot;)" stroke-linecap="round" class="BottomLeft"></path><path d="M606 543L239 910" stroke-width="10" stroke="url(&quot;#SvgjsLinearGradient1017&quot;)" stroke-linecap="round" class="TopRight"></path><path d="M922 504L647 779" stroke-width="8" stroke="url(&quot;#SvgjsLinearGradient1016&quot;)" stroke-linecap="round" class="BottomLeft"></path><path d="M230 459L449 240" stroke-width="10" stroke="url(&quot;#SvgjsLinearGradient1016&quot;)" stroke-linecap="round" class="BottomLeft"></path><path d="M352 520L629 243" stroke-width="8" stroke="url(&quot;#SvgjsLinearGradient1017&quot;)" stroke-linecap="round" class="TopRight"></path></g><defs><mask id="SvgjsMask1015"><rect width="1440" height="560" fill="#ffffff"></rect></mask><linearGradient x1="100%" y1="0%" x2="0%" y2="100%" id="SvgjsLinearGradient1016"><stop stop-color="rgba(28, 83, 142, 0)" offset="0"></stop><stop stop-color="#1c538e" offset="1"></stop></linearGradient><linearGradient x1="0%" y1="100%" x2="100%" y2="0%" id="SvgjsLinearGradient1017"><stop stop-color="rgba(28, 83, 142, 0)" offset="0"></stop><stop stop-color="#1c538e" offset="1"></stop></linearGradient></defs></svg>