<svg xmlns="http://www.w3.org/2000/svg" version="1.1" xmlns:xlink="http://www.w3.org/1999/xlink" xmlns:svgjs="http://svgjs.dev/svgjs" width="1440" height="560" preserveAspectRatio="none" viewBox="0 0 1440 560"><g mask="url(&quot;#SvgjsMask1000&quot;)" fill="none"><rect width="1440" height="560" x="0" y="0" fill="#0e2a47"></rect><path d="M-59.09 406.98L-59.09 406.98" stroke="#132e65" stroke-width="1.5"></path><path d="M-59.09 406.98L-74.52 487.59" stroke="#132e65" stroke-width="1.5"></path><path d="M-59.09 406.98L81.32 410.74" stroke="#132e65" stroke-width="1.5"></path><path d="M-74.52 487.59L-74.52 487.59" stroke="#132e65" stroke-width="1.5"></path><path d="M-74.52 487.59L38.05 547.33" stroke="#132e65" stroke-width="1.5"></path><path d="M-74.52 487.59L-38.71 652.97" stroke="#132e65" stroke-width="1.5"></path><path d="M-74.52 487.59L81.32 410.74" stroke="#132e65" stroke-width="1.5"></path><path d="M-74.52 487.59L45.57 641.36" stroke="#132e65" stroke-width="1.5"></path><path d="M-38.71 652.97L-38.71 652.97" stroke="#132e65" stroke-width="1.5"></path><path d="M-38.71 652.97L45.57 641.36" stroke="#132e65" stroke-width="1.5"></path><path d="M-38.71 652.97L38.05 547.33" stroke="#132e65" stroke-width="1.5"></path><path d="M-38.71 652.97L-59.09 406.98" stroke="#132e65" stroke-width="1.5"></path><path d="M-38.71 652.97L81.32 410.74" stroke="#132e65" stroke-width="1.5"></path><path d="M-38.71 652.97L241.39 674.84" stroke="#132e65" stroke-width="1.5"></path><path d="M81.32 410.74L81.32 410.74" stroke="#132e65" stroke-width="1.5"></path><path d="M81.32 410.74L218.28 404.21" stroke="#132e65" stroke-width="1.5"></path><path d="M81.32 410.74L38.05 547.33" stroke="#132e65" stroke-width="1.5"></path><path d="M81.32 410.74L45.57 641.36" stroke="#132e65" stroke-width="1.5"></path><path d="M38.05 547.33L38.05 547.33" stroke="#132e65" stroke-width="1.5"></path><path d="M38.05 547.33L45.57 641.36" stroke="#132e65" stroke-width="1.5"></path><path d="M45.57 641.36L45.57 641.36" stroke="#132e65" stroke-width="1.5"></path><path d="M45.57 641.36L241.39 674.84" stroke="#132e65" stroke-width="1.5"></path><path d="M218.28 404.21L218.28 404.21" stroke="#132e65" stroke-width="1.5"></path><path d="M218.28 404.21L355.75 363.38" stroke="#132e65" stroke-width="1.5"></path><path d="M241.39 674.84L241.39 674.84" stroke="#132e65" stroke-width="1.5"></path><path d="M241.39 674.84L355.95 681.28" stroke="#132e65" stroke-width="1.5"></path><path d="M241.39 674.84L351.98 502.2" stroke="#132e65" stroke-width="1.5"></path><path d="M241.39 674.84L38.05 547.33" stroke="#132e65" stroke-width="1.5"></path><path d="M241.39 674.84L492.8 667.95" stroke="#132e65" stroke-width="1.5"></path><path d="M355.75 363.38L355.75 363.38" stroke="#132e65" stroke-width="1.5"></path><path d="M355.75 363.38L351.98 502.2" stroke="#132e65" stroke-width="1.5"></path><path d="M355.75 363.38L541.32 506.88" stroke="#132e65" stroke-width="1.5"></path><path d="M355.75 363.38L81.32 410.74" stroke="#132e65" stroke-width="1.5"></path><path d="M355.75 363.38L355.95 681.28" stroke="#132e65" stroke-width="1.5"></path><path d="M351.98 502.2L351.98 502.2" stroke="#132e65" stroke-width="1.5"></path><path d="M351.98 502.2L218.28 404.21" stroke="#132e65" stroke-width="1.5"></path><path d="M351.98 502.2L355.95 681.28" stroke="#132e65" stroke-width="1.5"></path><path d="M355.95 681.28L355.95 681.28" stroke="#132e65" stroke-width="1.5"></path><path d="M355.95 681.28L492.8 667.95" stroke="#132e65" stroke-width="1.5"></path><path d="M355.95 681.28L541.32 506.88" stroke="#132e65" stroke-width="1.5"></path><path d="M541.32 506.88L541.32 506.88" stroke="#132e65" stroke-width="1.5"></path><path d="M541.32 506.88L695.8 537.47" stroke="#132e65" stroke-width="1.5"></path><path d="M541.32 506.88L492.8 667.95" stroke="#132e65" stroke-width="1.5"></path><path d="M492.8 667.95L492.8 667.95" stroke="#132e65" stroke-width="1.5"></path><path d="M699.84 209.14L699.84 209.14" stroke="#132e65" stroke-width="1.5"></path><path d="M699.84 209.14L798.52 202.94" stroke="#132e65" stroke-width="1.5"></path><path d="M699.84 209.14L690.57 403.06" stroke="#132e65" stroke-width="1.5"></path><path d="M699.84 209.14L846.26 344.77" stroke="#132e65" stroke-width="1.5"></path><path d="M699.84 209.14L943.38 344.98" stroke="#132e65" stroke-width="1.5"></path><path d="M690.57 403.06L690.57 403.06" stroke="#132e65" stroke-width="1.5"></path><path d="M690.57 403.06L695.8 537.47" stroke="#132e65" stroke-width="1.5"></path><path d="M690.57 403.06L846.26 344.77" stroke="#132e65" stroke-width="1.5"></path><path d="M695.8 537.47L695.8 537.47" stroke="#132e65" stroke-width="1.5"></path><path d="M695.8 537.47L795.47 641.98" stroke="#132e65" stroke-width="1.5"></path><path d="M695.8 537.47L850.25 514.09" stroke="#132e65" stroke-width="1.5"></path><path d="M668.32 702.18L668.32 702.18" stroke="#132e65" stroke-width="1.5"></path><path d="M668.32 702.18L795.47 641.98" stroke="#132e65" stroke-width="1.5"></path><path d="M668.32 702.18L695.8 537.47" stroke="#132e65" stroke-width="1.5"></path><path d="M798.52 202.94L798.52 202.94" stroke="#132e65" stroke-width="1.5"></path><path d="M798.52 202.94L846.26 344.77" stroke="#132e65" stroke-width="1.5"></path><path d="M798.52 202.94L984.28 187.64" stroke="#132e65" stroke-width="1.5"></path><path d="M798.52 202.94L943.38 344.98" stroke="#132e65" stroke-width="1.5"></path><path d="M798.52 202.94L690.57 403.06" stroke="#132e65" stroke-width="1.5"></path><path d="M798.52 202.94L977.92 56.34" stroke="#132e65" stroke-width="1.5"></path><path d="M846.26 344.77L846.26 344.77" stroke="#132e65" stroke-width="1.5"></path><path d="M846.26 344.77L943.38 344.98" stroke="#132e65" stroke-width="1.5"></path><path d="M850.25 514.09L850.25 514.09" stroke="#132e65" stroke-width="1.5"></path><path d="M850.25 514.09L949.75 492.96" stroke="#132e65" stroke-width="1.5"></path><path d="M850.25 514.09L795.47 641.98" stroke="#132e65" stroke-width="1.5"></path><path d="M850.25 514.09L846.26 344.77" stroke="#132e65" stroke-width="1.5"></path><path d="M850.25 514.09L948.11 663.06" stroke="#132e65" stroke-width="1.5"></path><path d="M795.47 641.98L795.47 641.98" stroke="#132e65" stroke-width="1.5"></path><path d="M954.26 -47.46L954.26 -47.46" stroke="#132e65" stroke-width="1.5"></path><path d="M954.26 -47.46L977.92 56.34" stroke="#132e65" stroke-width="1.5"></path><path d="M954.26 -47.46L1150.98 -65.6" stroke="#132e65" stroke-width="1.5"></path><path d="M954.26 -47.46L1149.48 84.58" stroke="#132e65" stroke-width="1.5"></path><path d="M954.26 -47.46L984.28 187.64" stroke="#132e65" stroke-width="1.5"></path><path d="M954.26 -47.46L798.52 202.94" stroke="#132e65" stroke-width="1.5"></path><path d="M954.26 -47.46L1256.32 -54.32" stroke="#132e65" stroke-width="1.5"></path><path d="M977.92 56.34L977.92 56.34" stroke="#132e65" stroke-width="1.5"></path><path d="M977.92 56.34L984.28 187.64" stroke="#132e65" stroke-width="1.5"></path><path d="M977.92 56.34L1149.48 84.58" stroke="#132e65" stroke-width="1.5"></path><path d="M977.92 56.34L1102.3 222.18" stroke="#132e65" stroke-width="1.5"></path><path d="M977.92 56.34L1150.98 -65.6" stroke="#132e65" stroke-width="1.5"></path><path d="M984.28 187.64L984.28 187.64" stroke="#132e65" stroke-width="1.5"></path><path d="M984.28 187.64L1102.3 222.18" stroke="#132e65" stroke-width="1.5"></path><path d="M943.38 344.98L943.38 344.98" stroke="#132e65" stroke-width="1.5"></path><path d="M943.38 344.98L949.75 492.96" stroke="#132e65" stroke-width="1.5"></path><path d="M943.38 344.98L984.28 187.64" stroke="#132e65" stroke-width="1.5"></path><path d="M943.38 344.98L850.25 514.09" stroke="#132e65" stroke-width="1.5"></path><path d="M949.75 492.96L949.75 492.96" stroke="#132e65" stroke-width="1.5"></path><path d="M949.75 492.96L1101.46 533.98" stroke="#132e65" stroke-width="1.5"></path><path d="M948.11 663.06L948.11 663.06" stroke="#132e65" stroke-width="1.5"></path><path d="M948.11 663.06L795.47 641.98" stroke="#132e65" stroke-width="1.5"></path><path d="M948.11 663.06L949.75 492.96" stroke="#132e65" stroke-width="1.5"></path><path d="M1150.98 -65.6L1150.98 -65.6" stroke="#132e65" stroke-width="1.5"></path><path d="M1150.98 -65.6L1256.32 -54.32" stroke="#132e65" stroke-width="1.5"></path><path d="M1150.98 -65.6L1149.48 84.58" stroke="#132e65" stroke-width="1.5"></path><path d="M1150.98 -65.6L1278.39 86.22" stroke="#132e65" stroke-width="1.5"></path><path d="M1149.48 84.58L1149.48 84.58" stroke="#132e65" stroke-width="1.5"></path><path d="M1149.48 84.58L1278.39 86.22" stroke="#132e65" stroke-width="1.5"></path><path d="M1149.48 84.58L1102.3 222.18" stroke="#132e65" stroke-width="1.5"></path><path d="M1102.3 222.18L1102.3 222.18" stroke="#132e65" stroke-width="1.5"></path><path d="M1102.3 222.18L1240.71 239.32" stroke="#132e65" stroke-width="1.5"></path><path d="M1102.3 222.18L1145.49 408.81" stroke="#132e65" stroke-width="1.5"></path><path d="M1145.49 408.81L1145.49 408.81" stroke="#132e65" stroke-width="1.5"></path><path d="M1145.49 408.81L1101.46 533.98" stroke="#132e65" stroke-width="1.5"></path><path d="M1145.49 408.81L1249.49 495.94" stroke="#132e65" stroke-width="1.5"></path><path d="M1101.46 533.98L1101.46 533.98" stroke="#132e65" stroke-width="1.5"></path><path d="M1101.46 533.98L1249.49 495.94" stroke="#132e65" stroke-width="1.5"></path><path d="M1101.46 533.98L1157.1 678.58" stroke="#132e65" stroke-width="1.5"></path><path d="M1157.1 678.58L1157.1 678.58" stroke="#132e65" stroke-width="1.5"></path><path d="M1157.1 678.58L1282.26 665.95" stroke="#132e65" stroke-width="1.5"></path><path d="M1157.1 678.58L1249.49 495.94" stroke="#132e65" stroke-width="1.5"></path><path d="M1157.1 678.58L948.11 663.06" stroke="#132e65" stroke-width="1.5"></path><path d="M1256.32 -54.32L1256.32 -54.32" stroke="#132e65" stroke-width="1.5"></path><path d="M1256.32 -54.32L1278.39 86.22" stroke="#132e65" stroke-width="1.5"></path><path d="M1256.32 -54.32L1423.14 -43.99" stroke="#132e65" stroke-width="1.5"></path><path d="M1256.32 -54.32L1149.48 84.58" stroke="#132e65" stroke-width="1.5"></path><path d="M1256.32 -54.32L1439.29 111.91" stroke="#132e65" stroke-width="1.5"></path><path d="M1278.39 86.22L1278.39 86.22" stroke="#132e65" stroke-width="1.5"></path><path d="M1278.39 86.22L1240.71 239.32" stroke="#132e65" stroke-width="1.5"></path><path d="M1278.39 86.22L1439.29 111.91" stroke="#132e65" stroke-width="1.5"></path><path d="M1278.39 86.22L1423.14 -43.99" stroke="#132e65" stroke-width="1.5"></path><path d="M1240.71 239.32L1240.71 239.32" stroke="#132e65" stroke-width="1.5"></path><path d="M1249.49 495.94L1249.49 495.94" stroke="#132e65" stroke-width="1.5"></path><path d="M1249.49 495.94L1414.92 489.08" stroke="#132e65" stroke-width="1.5"></path><path d="M1282.26 665.95L1282.26 665.95" stroke="#132e65" stroke-width="1.5"></path><path d="M1282.26 665.95L1444.77 690.55" stroke="#132e65" stroke-width="1.5"></path><path d="M1423.14 -43.99L1423.14 -43.99" stroke="#132e65" stroke-width="1.5"></path><path d="M1423.14 -43.99L1579.45 -50.24" stroke="#132e65" stroke-width="1.5"></path><path d="M1423.14 -43.99L1439.29 111.91" stroke="#132e65" stroke-width="1.5"></path><path d="M1423.14 -43.99L1570.66 70.6" stroke="#132e65" stroke-width="1.5"></path><path d="M1439.29 111.91L1439.29 111.91" stroke="#132e65" stroke-width="1.5"></path><path d="M1439.29 111.91L1459.93 219.22" stroke="#132e65" stroke-width="1.5"></path><path d="M1459.93 219.22L1459.93 219.22" stroke="#132e65" stroke-width="1.5"></path><path d="M1459.93 219.22L1557.92 234.37" stroke="#132e65" stroke-width="1.5"></path><path d="M1396.86 365.38L1396.86 365.38" stroke="#132e65" stroke-width="1.5"></path><path d="M1396.86 365.38L1414.92 489.08" stroke="#132e65" stroke-width="1.5"></path><path d="M1414.92 489.08L1414.92 489.08" stroke="#132e65" stroke-width="1.5"></path><path d="M1414.92 489.08L1537.72 400.43" stroke="#132e65" stroke-width="1.5"></path><path d="M1444.77 690.55L1444.77 690.55" stroke="#132e65" stroke-width="1.5"></path><path d="M1444.77 690.55L1414.92 489.08" stroke="#132e65" stroke-width="1.5"></path><path d="M1579.45 -50.24L1579.45 -50.24" stroke="#132e65" stroke-width="1.5"></path><path d="M1579.45 -50.24L1570.66 70.6" stroke="#132e65" stroke-width="1.5"></path><path d="M1579.45 -50.24L1439.29 111.91" stroke="#132e65" stroke-width="1.5"></path><path d="M1570.66 70.6L1570.66 70.6" stroke="#132e65" stroke-width="1.5"></path><path d="M1570.66 70.6L1439.29 111.91" stroke="#132e65" stroke-width="1.5"></path><path d="M1570.66 70.6L1557.92 234.37" stroke="#132e65" stroke-width="1.5"></path><path d="M1570.66 70.6L1459.93 219.22" stroke="#132e65" stroke-width="1.5"></path><path d="M1557.92 234.37L1557.92 234.37" stroke="#132e65" stroke-width="1.5"></path><path d="M1557.92 234.37L1537.72 400.43" stroke="#132e65" stroke-width="1.5"></path><path d="M1557.92 234.37L1439.29 111.91" stroke="#132e65" stroke-width="1.5"></path><path d="M1537.72 400.43L1537.72 400.43" stroke="#132e65" stroke-width="1.5"></path><path d="M1537.72 400.43L1396.86 365.38" stroke="#132e65" stroke-width="1.5"></path><path d="M1537.72 400.43L1600.3 544.59" stroke="#132e65" stroke-width="1.5"></path><path d="M1537.72 400.43L1459.93 219.22" stroke="#132e65" stroke-width="1.5"></path><path d="M1537.72 400.43L1249.49 495.94" stroke="#132e65" stroke-width="1.5"></path><path d="M1600.3 544.59L1600.3 544.59" stroke="#132e65" stroke-width="1.5"></path><path d="M1600.3 544.59L1414.92 489.08" stroke="#132e65" stroke-width="1.5"></path><path d="M1600.3 544.59L1444.77 690.55" stroke="#132e65" stroke-width="1.5"></path><path d="M1600.3 544.59L1396.86 365.38" stroke="#132e65" stroke-width="1.5"></path><circle r="5" cx="-59.09" cy="406.98" fill="#132e65"></circle><circle r="5" cx="-74.52" cy="487.59" fill="#132e65"></circle><circle r="5" cx="-38.71" cy="652.97" fill="#132e65"></circle><circle r="5" cx="81.32" cy="410.74" fill="#132e65"></circle><circle r="5" cx="38.05" cy="547.33" fill="#132e65"></circle><circle r="5" cx="45.57" cy="641.36" fill="#132e65"></circle><circle r="5" cx="218.28" cy="404.21" fill="#132e65"></circle><circle r="5" cx="241.39" cy="674.84" fill="#132e65"></circle><circle r="5" cx="355.75" cy="363.38" fill="#132e65"></circle><circle r="5" cx="351.98" cy="502.2" fill="#132e65"></circle><circle r="5" cx="355.95" cy="681.28" fill="#132e65"></circle><circle r="5" cx="541.32" cy="506.88" fill="#132e65"></circle><circle r="5" cx="492.8" cy="667.95" fill="#132e65"></circle><circle r="5" cx="699.84" cy="209.14" fill="#132e65"></circle><circle r="5" cx="690.57" cy="403.06" fill="#132e65"></circle><circle r="5" cx="695.8" cy="537.47" fill="#132e65"></circle><circle r="5" cx="668.32" cy="702.18" fill="#132e65"></circle><circle r="5" cx="798.52" cy="202.94" fill="#132e65"></circle><circle r="5" cx="846.26" cy="344.77" fill="#132e65"></circle><circle r="5" cx="850.25" cy="514.09" fill="#132e65"></circle><circle r="5" cx="795.47" cy="641.98" fill="#132e65"></circle><circle r="5" cx="954.26" cy="-47.46" fill="#132e65"></circle><circle r="5" cx="977.92" cy="56.34" fill="#132e65"></circle><circle r="5" cx="984.28" cy="187.64" fill="#132e65"></circle><circle r="5" cx="943.38" cy="344.98" fill="#132e65"></circle><circle r="5" cx="949.75" cy="492.96" fill="#132e65"></circle><circle r="5" cx="948.11" cy="663.06" fill="#132e65"></circle><circle r="5" cx="1150.98" cy="-65.6" fill="#132e65"></circle><circle r="5" cx="1149.48" cy="84.58" fill="#132e65"></circle><circle r="5" cx="1102.3" cy="222.18" fill="#132e65"></circle><circle r="5" cx="1145.49" cy="408.81" fill="#132e65"></circle><circle r="5" cx="1101.46" cy="533.98" fill="#132e65"></circle><circle r="5" cx="1157.1" cy="678.58" fill="#132e65"></circle><circle r="5" cx="1256.32" cy="-54.32" fill="#132e65"></circle><circle r="5" cx="1278.39" cy="86.22" fill="#132e65"></circle><circle r="5" cx="1240.71" cy="239.32" fill="#132e65"></circle><circle r="5" cx="1249.49" cy="495.94" fill="#132e65"></circle><circle r="5" cx="1282.26" cy="665.95" fill="#132e65"></circle><circle r="5" cx="1423.14" cy="-43.99" fill="#132e65"></circle><circle r="5" cx="1439.29" cy="111.91" fill="#132e65"></circle><circle r="5" cx="1459.93" cy="219.22" fill="#132e65"></circle><circle r="5" cx="1396.86" cy="365.38" fill="#132e65"></circle><circle r="5" cx="1414.92" cy="489.08" fill="#132e65"></circle><circle r="5" cx="1444.77" cy="690.55" fill="#132e65"></circle><circle r="5" cx="1579.45" cy="-50.24" fill="#132e65"></circle><circle r="5" cx="1570.66" cy="70.6" fill="#132e65"></circle><circle r="5" cx="1557.92" cy="234.37" fill="#132e65"></circle><circle r="5" cx="1537.72" cy="400.43" fill="#132e65"></circle><circle r="5" cx="1600.3" cy="544.59" fill="#132e65"></circle><path d="M206.84 546.29L206.84 546.29" stroke="hsl(228.5, 77.2%, 51.5%)" stroke-width="1.5"></path><path d="M206.84 546.29L223.98 669.39" stroke="hsl(228.5, 77.2%, 51.5%)" stroke-width="1.5"></path><path d="M206.84 546.29L342.83 537.65" stroke="hsl(228.5, 77.2%, 51.5%)" stroke-width="1.5"></path><path d="M206.84 546.29L64.45 525.07" stroke="hsl(228.5, 77.2%, 51.5%)" stroke-width="1.5"></path><path d="M206.84 546.29L387.13 658.55" stroke="hsl(228.5, 77.2%, 51.5%)" stroke-width="1.5"></path><path d="M387.13 658.55L387.13 658.55" stroke="hsl(228.5, 77.2%, 51.5%)" stroke-width="1.5"></path><path d="M387.13 658.55L342.83 537.65" stroke="hsl(228.5, 77.2%, 51.5%)" stroke-width="1.5"></path><path d="M387.13 658.55L527.73 705.29" stroke="hsl(228.5, 77.2%, 51.5%)" stroke-width="1.5"></path><path d="M387.13 658.55L505.99 558.15" stroke="hsl(228.5, 77.2%, 51.5%)" stroke-width="1.5"></path><path d="M387.13 658.55L223.98 669.39" stroke="hsl(228.5, 77.2%, 51.5%)" stroke-width="1.5"></path><path d="M681.64 539.87L681.64 539.87" stroke="hsl(228.5, 77.2%, 51.5%)" stroke-width="1.5"></path><path d="M681.64 539.87L668.88 695.43" stroke="hsl(228.5, 77.2%, 51.5%)" stroke-width="1.5"></path><path d="M681.64 539.87L505.99 558.15" stroke="hsl(228.5, 77.2%, 51.5%)" stroke-width="1.5"></path><path d="M681.64 539.87L556.68 394.35" stroke="hsl(228.5, 77.2%, 51.5%)" stroke-width="1.5"></path><path d="M681.64 539.87L824.21 684.71" stroke="hsl(228.5, 77.2%, 51.5%)" stroke-width="1.5"></path><path d="M681.64 539.87L789.1 351.92" stroke="hsl(228.5, 77.2%, 51.5%)" stroke-width="1.5"></path><path d="M990.65 666.42L990.65 666.42" stroke="hsl(228.5, 77.2%, 51.5%)" stroke-width="1.5"></path><path d="M990.65 666.42L1117.75 710.58" stroke="hsl(228.5, 77.2%, 51.5%)" stroke-width="1.5"></path><path d="M990.65 666.42L824.21 684.71" stroke="hsl(228.5, 77.2%, 51.5%)" stroke-width="1.5"></path><path d="M990.65 666.42L1103.35 517.23" stroke="hsl(228.5, 77.2%, 51.5%)" stroke-width="1.5"></path><path d="M990.65 666.42L1249.66 662.8" stroke="hsl(228.5, 77.2%, 51.5%)" stroke-width="1.5"></path><path d="M1254.98 -111.66L1254.98 -111.66" stroke="hsl(228.5, 77.2%, 51.5%)" stroke-width="1.5"></path><path d="M1254.98 -111.66L1296.46 60.49" stroke="hsl(228.5, 77.2%, 51.5%)" stroke-width="1.5"></path><path d="M1247.42 395.62L1247.42 395.62" stroke="hsl(228.5, 77.2%, 51.5%)" stroke-width="1.5"></path><path d="M1247.42 395.62L1160.12 339.12" stroke="hsl(228.5, 77.2%, 51.5%)" stroke-width="1.5"></path><path d="M1247.42 395.62L1292.29 535.6" stroke="hsl(228.5, 77.2%, 51.5%)" stroke-width="1.5"></path><path d="M1247.42 395.62L1261.54 229.3" stroke="hsl(228.5, 77.2%, 51.5%)" stroke-width="1.5"></path><path d="M1247.42 395.62L1103.35 517.23" stroke="hsl(228.5, 77.2%, 51.5%)" stroke-width="1.5"></path><path d="M1247.42 395.62L1406.9 499.37" stroke="hsl(228.5, 77.2%, 51.5%)" stroke-width="1.5"></path><path d="M1423.32 -47.86L1423.32 -47.86" stroke="hsl(228.5, 77.2%, 51.5%)" stroke-width="1.5"></path><path d="M1423.32 -47.86L1426.64 70.74" stroke="hsl(228.5, 77.2%, 51.5%)" stroke-width="1.5"></path><path d="M1423.32 -47.86L1296.46 60.49" stroke="hsl(228.5, 77.2%, 51.5%)" stroke-width="1.5"></path><path d="M1423.32 -47.86L1583.5 -106.42" stroke="hsl(228.5, 77.2%, 51.5%)" stroke-width="1.5"></path><path d="M1423.32 -47.86L1254.98 -111.66" stroke="hsl(228.5, 77.2%, 51.5%)" stroke-width="1.5"></path><path d="M1456.07 382.51L1456.07 382.51" stroke="hsl(228.5, 77.2%, 51.5%)" stroke-width="1.5"></path><path d="M1456.07 382.51L1557.35 359.18" stroke="hsl(228.5, 77.2%, 51.5%)" stroke-width="1.5"></path><path d="M1456.07 382.51L1406.9 499.37" stroke="hsl(228.5, 77.2%, 51.5%)" stroke-width="1.5"></path><path d="M1414.79 701.88L1414.79 701.88" stroke="hsl(228.5, 77.2%, 51.5%)" stroke-width="1.5"></path><path d="M1414.79 701.88L1574.54 709.61" stroke="hsl(228.5, 77.2%, 51.5%)" stroke-width="1.5"></path><path d="M1414.79 701.88L1249.66 662.8" stroke="hsl(228.5, 77.2%, 51.5%)" stroke-width="1.5"></path><path d="M1414.79 701.88L1406.9 499.37" stroke="hsl(228.5, 77.2%, 51.5%)" stroke-width="1.5"></path><path d="M-62.84 494.69L-62.84 494.69" stroke="hsl(228.5, 77.2%, 51.5%)" stroke-width="1.5"></path><path d="M-62.84 494.69L64.45 525.07" stroke="hsl(228.5, 77.2%, 51.5%)" stroke-width="1.5"></path><path d="M-62.84 494.69L-100.46 671.89" stroke="hsl(228.5, 77.2%, 51.5%)" stroke-width="1.5"></path><path d="M-100.46 671.89L-100.46 671.89" stroke="hsl(228.5, 77.2%, 51.5%)" stroke-width="1.5"></path><path d="M64.45 525.07L64.45 525.07" stroke="hsl(228.5, 77.2%, 51.5%)" stroke-width="1.5"></path><path d="M64.45 525.07L223.98 669.39" stroke="hsl(228.5, 77.2%, 51.5%)" stroke-width="1.5"></path><path d="M64.45 525.07L-100.46 671.89" stroke="hsl(228.5, 77.2%, 51.5%)" stroke-width="1.5"></path><path d="M64.45 525.07L342.83 537.65" stroke="hsl(228.5, 77.2%, 51.5%)" stroke-width="1.5"></path><path d="M64.45 525.07L387.13 658.55" stroke="hsl(228.5, 77.2%, 51.5%)" stroke-width="1.5"></path><path d="M223.98 669.39L223.98 669.39" stroke="hsl(228.5, 77.2%, 51.5%)" stroke-width="1.5"></path><path d="M223.98 669.39L342.83 537.65" stroke="hsl(228.5, 77.2%, 51.5%)" stroke-width="1.5"></path><path d="M223.98 669.39L505.99 558.15" stroke="hsl(228.5, 77.2%, 51.5%)" stroke-width="1.5"></path><path d="M342.83 537.65L342.83 537.65" stroke="hsl(228.5, 77.2%, 51.5%)" stroke-width="1.5"></path><path d="M556.68 394.35L556.68 394.35" stroke="hsl(228.5, 77.2%, 51.5%)" stroke-width="1.5"></path><path d="M556.68 394.35L505.99 558.15" stroke="hsl(228.5, 77.2%, 51.5%)" stroke-width="1.5"></path><path d="M556.68 394.35L789.1 351.92" stroke="hsl(228.5, 77.2%, 51.5%)" stroke-width="1.5"></path><path d="M556.68 394.35L342.83 537.65" stroke="hsl(228.5, 77.2%, 51.5%)" stroke-width="1.5"></path><path d="M505.99 558.15L505.99 558.15" stroke="hsl(228.5, 77.2%, 51.5%)" stroke-width="1.5"></path><path d="M505.99 558.15L527.73 705.29" stroke="hsl(228.5, 77.2%, 51.5%)" stroke-width="1.5"></path><path d="M527.73 705.29L527.73 705.29" stroke="hsl(228.5, 77.2%, 51.5%)" stroke-width="1.5"></path><path d="M527.73 705.29L668.88 695.43" stroke="hsl(228.5, 77.2%, 51.5%)" stroke-width="1.5"></path><path d="M527.73 705.29L681.64 539.87" stroke="hsl(228.5, 77.2%, 51.5%)" stroke-width="1.5"></path><path d="M668.88 695.43L668.88 695.43" stroke="hsl(228.5, 77.2%, 51.5%)" stroke-width="1.5"></path><path d="M668.88 695.43L824.21 684.71" stroke="hsl(228.5, 77.2%, 51.5%)" stroke-width="1.5"></path><path d="M668.88 695.43L505.99 558.15" stroke="hsl(228.5, 77.2%, 51.5%)" stroke-width="1.5"></path><path d="M668.88 695.43L387.13 658.55" stroke="hsl(228.5, 77.2%, 51.5%)" stroke-width="1.5"></path><path d="M789.1 351.92L789.1 351.92" stroke="hsl(228.5, 77.2%, 51.5%)" stroke-width="1.5"></path><path d="M789.1 351.92L965.21 383.61" stroke="hsl(228.5, 77.2%, 51.5%)" stroke-width="1.5"></path><path d="M824.21 684.71L824.21 684.71" stroke="hsl(228.5, 77.2%, 51.5%)" stroke-width="1.5"></path><path d="M824.21 684.71L1117.75 710.58" stroke="hsl(228.5, 77.2%, 51.5%)" stroke-width="1.5"></path><path d="M824.21 684.71L527.73 705.29" stroke="hsl(228.5, 77.2%, 51.5%)" stroke-width="1.5"></path><path d="M965.21 383.61L965.21 383.61" stroke="hsl(228.5, 77.2%, 51.5%)" stroke-width="1.5"></path><path d="M965.21 383.61L1103.35 517.23" stroke="hsl(228.5, 77.2%, 51.5%)" stroke-width="1.5"></path><path d="M965.21 383.61L1160.12 339.12" stroke="hsl(228.5, 77.2%, 51.5%)" stroke-width="1.5"></path><path d="M1120.83 111.35L1120.83 111.35" stroke="hsl(228.5, 77.2%, 51.5%)" stroke-width="1.5"></path><path d="M1120.83 111.35L1139.07 224.49" stroke="hsl(228.5, 77.2%, 51.5%)" stroke-width="1.5"></path><path d="M1120.83 111.35L1296.46 60.49" stroke="hsl(228.5, 77.2%, 51.5%)" stroke-width="1.5"></path><path d="M1120.83 111.35L1261.54 229.3" stroke="hsl(228.5, 77.2%, 51.5%)" stroke-width="1.5"></path><path d="M1120.83 111.35L1160.12 339.12" stroke="hsl(228.5, 77.2%, 51.5%)" stroke-width="1.5"></path><path d="M1120.83 111.35L1254.98 -111.66" stroke="hsl(228.5, 77.2%, 51.5%)" stroke-width="1.5"></path><path d="M1120.83 111.35L1426.64 70.74" stroke="hsl(228.5, 77.2%, 51.5%)" stroke-width="1.5"></path><path d="M1139.07 224.49L1139.07 224.49" stroke="hsl(228.5, 77.2%, 51.5%)" stroke-width="1.5"></path><path d="M1139.07 224.49L1160.12 339.12" stroke="hsl(228.5, 77.2%, 51.5%)" stroke-width="1.5"></path><path d="M1139.07 224.49L1261.54 229.3" stroke="hsl(228.5, 77.2%, 51.5%)" stroke-width="1.5"></path><path d="M1139.07 224.49L1247.42 395.62" stroke="hsl(228.5, 77.2%, 51.5%)" stroke-width="1.5"></path><path d="M1139.07 224.49L1296.46 60.49" stroke="hsl(228.5, 77.2%, 51.5%)" stroke-width="1.5"></path><path d="M1160.12 339.12L1160.12 339.12" stroke="hsl(228.5, 77.2%, 51.5%)" stroke-width="1.5"></path><path d="M1160.12 339.12L1261.54 229.3" stroke="hsl(228.5, 77.2%, 51.5%)" stroke-width="1.5"></path><path d="M1160.12 339.12L1103.35 517.23" stroke="hsl(228.5, 77.2%, 51.5%)" stroke-width="1.5"></path><path d="M1103.35 517.23L1103.35 517.23" stroke="hsl(228.5, 77.2%, 51.5%)" stroke-width="1.5"></path><path d="M1103.35 517.23L1292.29 535.6" stroke="hsl(228.5, 77.2%, 51.5%)" stroke-width="1.5"></path><path d="M1117.75 710.58L1117.75 710.58" stroke="hsl(228.5, 77.2%, 51.5%)" stroke-width="1.5"></path><path d="M1117.75 710.58L1249.66 662.8" stroke="hsl(228.5, 77.2%, 51.5%)" stroke-width="1.5"></path><path d="M1117.75 710.58L1103.35 517.23" stroke="hsl(228.5, 77.2%, 51.5%)" stroke-width="1.5"></path><path d="M1117.75 710.58L1292.29 535.6" stroke="hsl(228.5, 77.2%, 51.5%)" stroke-width="1.5"></path><path d="M1117.75 710.58L1414.79 701.88" stroke="hsl(228.5, 77.2%, 51.5%)" stroke-width="1.5"></path><path d="M1296.46 60.49L1296.46 60.49" stroke="hsl(228.5, 77.2%, 51.5%)" stroke-width="1.5"></path><path d="M1296.46 60.49L1426.64 70.74" stroke="hsl(228.5, 77.2%, 51.5%)" stroke-width="1.5"></path><path d="M1296.46 60.49L1261.54 229.3" stroke="hsl(228.5, 77.2%, 51.5%)" stroke-width="1.5"></path><path d="M1261.54 229.3L1261.54 229.3" stroke="hsl(228.5, 77.2%, 51.5%)" stroke-width="1.5"></path><path d="M1292.29 535.6L1292.29 535.6" stroke="hsl(228.5, 77.2%, 51.5%)" stroke-width="1.5"></path><path d="M1292.29 535.6L1406.9 499.37" stroke="hsl(228.5, 77.2%, 51.5%)" stroke-width="1.5"></path><path d="M1292.29 535.6L1249.66 662.8" stroke="hsl(228.5, 77.2%, 51.5%)" stroke-width="1.5"></path><path d="M1292.29 535.6L1414.79 701.88" stroke="hsl(228.5, 77.2%, 51.5%)" stroke-width="1.5"></path><path d="M1292.29 535.6L1456.07 382.51" stroke="hsl(228.5, 77.2%, 51.5%)" stroke-width="1.5"></path><path d="M1249.66 662.8L1249.66 662.8" stroke="hsl(228.5, 77.2%, 51.5%)" stroke-width="1.5"></path><path d="M1249.66 662.8L1103.35 517.23" stroke="hsl(228.5, 77.2%, 51.5%)" stroke-width="1.5"></path><path d="M1426.64 70.74L1426.64 70.74" stroke="hsl(228.5, 77.2%, 51.5%)" stroke-width="1.5"></path><path d="M1426.64 70.74L1539.86 100.7" stroke="hsl(228.5, 77.2%, 51.5%)" stroke-width="1.5"></path><path d="M1441.43 202.02L1441.43 202.02" stroke="hsl(228.5, 77.2%, 51.5%)" stroke-width="1.5"></path><path d="M1441.43 202.02L1570.21 225.06" stroke="hsl(228.5, 77.2%, 51.5%)" stroke-width="1.5"></path><path d="M1441.43 202.02L1426.64 70.74" stroke="hsl(228.5, 77.2%, 51.5%)" stroke-width="1.5"></path><path d="M1441.43 202.02L1539.86 100.7" stroke="hsl(228.5, 77.2%, 51.5%)" stroke-width="1.5"></path><path d="M1406.9 499.37L1406.9 499.37" stroke="hsl(228.5, 77.2%, 51.5%)" stroke-width="1.5"></path><path d="M1406.9 499.37L1566.85 545.48" stroke="hsl(228.5, 77.2%, 51.5%)" stroke-width="1.5"></path><path d="M1583.5 -106.42L1583.5 -106.42" stroke="hsl(228.5, 77.2%, 51.5%)" stroke-width="1.5"></path><path d="M1583.5 -106.42L1539.86 100.7" stroke="hsl(228.5, 77.2%, 51.5%)" stroke-width="1.5"></path><path d="M1539.86 100.7L1539.86 100.7" stroke="hsl(228.5, 77.2%, 51.5%)" stroke-width="1.5"></path><path d="M1539.86 100.7L1570.21 225.06" stroke="hsl(228.5, 77.2%, 51.5%)" stroke-width="1.5"></path><path d="M1570.21 225.06L1570.21 225.06" stroke="hsl(228.5, 77.2%, 51.5%)" stroke-width="1.5"></path><path d="M1557.35 359.18L1557.35 359.18" stroke="hsl(228.5, 77.2%, 51.5%)" stroke-width="1.5"></path><path d="M1557.35 359.18L1570.21 225.06" stroke="hsl(228.5, 77.2%, 51.5%)" stroke-width="1.5"></path><path d="M1557.35 359.18L1566.85 545.48" stroke="hsl(228.5, 77.2%, 51.5%)" stroke-width="1.5"></path><path d="M1557.35 359.18L1441.43 202.02" stroke="hsl(228.5, 77.2%, 51.5%)" stroke-width="1.5"></path><path d="M1557.35 359.18L1406.9 499.37" stroke="hsl(228.5, 77.2%, 51.5%)" stroke-width="1.5"></path><path d="M1557.35 359.18L1539.86 100.7" stroke="hsl(228.5, 77.2%, 51.5%)" stroke-width="1.5"></path><path d="M1566.85 545.48L1566.85 545.48" stroke="hsl(228.5, 77.2%, 51.5%)" stroke-width="1.5"></path><path d="M1566.85 545.48L1574.54 709.61" stroke="hsl(228.5, 77.2%, 51.5%)" stroke-width="1.5"></path><path d="M1574.54 709.61L1574.54 709.61" stroke="hsl(228.5, 77.2%, 51.5%)" stroke-width="1.5"></path><path d="M1574.54 709.61L1406.9 499.37" stroke="hsl(228.5, 77.2%, 51.5%)" stroke-width="1.5"></path><path d="M1574.54 709.61L1249.66 662.8" stroke="hsl(228.5, 77.2%, 51.5%)" stroke-width="1.5"></path><circle r="25" cx="206.84" cy="546.29" fill="url(&quot;#SvgjsRadialGradient1001&quot;)"></circle><circle r="25" cx="387.13" cy="658.55" fill="url(&quot;#SvgjsRadialGradient1001&quot;)"></circle><circle r="25" cx="681.64" cy="539.87" fill="url(&quot;#SvgjsRadialGradient1001&quot;)"></circle><circle r="25" cx="990.65" cy="666.42" fill="url(&quot;#SvgjsRadialGradient1001&quot;)"></circle><circle r="25" cx="1254.98" cy="-111.66" fill="url(&quot;#SvgjsRadialGradient1001&quot;)"></circle><circle r="25" cx="1247.42" cy="395.62" fill="url(&quot;#SvgjsRadialGradient1001&quot;)"></circle><circle r="25" cx="1423.32" cy="-47.86" fill="url(&quot;#SvgjsRadialGradient1001&quot;)"></circle><circle r="25" cx="1456.07" cy="382.51" fill="url(&quot;#SvgjsRadialGradient1001&quot;)"></circle><circle r="25" cx="1414.79" cy="701.88" fill="url(&quot;#SvgjsRadialGradient1001&quot;)"></circle><circle r="5" cx="-62.84" cy="494.69" fill="#8b9ad9"></circle><circle r="5" cx="-100.46" cy="671.89" fill="#8b9ad9"></circle><circle r="5" cx="64.45" cy="525.07" fill="#8b9ad9"></circle><circle r="5" cx="223.98" cy="669.39" fill="#8b9ad9"></circle><circle r="5" cx="342.83" cy="537.65" fill="#8b9ad9"></circle><circle r="5" cx="556.68" cy="394.35" fill="#8b9ad9"></circle><circle r="5" cx="505.99" cy="558.15" fill="#8b9ad9"></circle><circle r="5" cx="527.73" cy="705.29" fill="#8b9ad9"></circle><circle r="5" cx="668.88" cy="695.43" fill="#8b9ad9"></circle><circle r="5" cx="789.1" cy="351.92" fill="#8b9ad9"></circle><circle r="5" cx="824.21" cy="684.71" fill="#8b9ad9"></circle><circle r="5" cx="965.21" cy="383.61" fill="#8b9ad9"></circle><circle r="5" cx="1120.83" cy="111.35" fill="#8b9ad9"></circle><circle r="5" cx="1139.07" cy="224.49" fill="#8b9ad9"></circle><circle r="5" cx="1160.12" cy="339.12" fill="#8b9ad9"></circle><circle r="5" cx="1103.35" cy="517.23" fill="#8b9ad9"></circle><circle r="5" cx="1117.75" cy="710.58" fill="#8b9ad9"></circle><circle r="5" cx="1296.46" cy="60.49" fill="#8b9ad9"></circle><circle r="5" cx="1261.54" cy="229.3" fill="#8b9ad9"></circle><circle r="5" cx="1292.29" cy="535.6" fill="#8b9ad9"></circle><circle r="5" cx="1249.66" cy="662.8" fill="#8b9ad9"></circle><circle r="5" cx="1426.64" cy="70.74" fill="#8b9ad9"></circle><circle r="5" cx="1441.43" cy="202.02" fill="#8b9ad9"></circle><circle r="5" cx="1406.9" cy="499.37" fill="#8b9ad9"></circle><circle r="5" cx="1583.5" cy="-106.42" fill="#8b9ad9"></circle><circle r="5" cx="1539.86" cy="100.7" fill="#8b9ad9"></circle><circle r="5" cx="1570.21" cy="225.06" fill="#8b9ad9"></circle><circle r="5" cx="1557.35" cy="359.18" fill="#8b9ad9"></circle><circle r="5" cx="1566.85" cy="545.48" fill="#8b9ad9"></circle><circle r="5" cx="1574.54" cy="709.61" fill="#8b9ad9"></circle></g><defs><mask id="SvgjsMask1000"><rect width="1440" height="560" fill="#ffffff"></rect></mask><radialGradient id="SvgjsRadialGradient1001"><stop stop-color="#ffffff" offset="0.1"></stop><stop stop-color="#1735b3" offset="0.2"></stop><stop stop-color="rgba(23, 53, 179, 0)" offset="1"></stop></radialGradient></defs></svg>